<svg width="0" height="0" style="position:absolute"><symbol fill="none" viewBox="0 0 24 25" id="arrow" xmlns="http://www.w3.org/2000/svg"><path d="M15.667 5.5c0 .742.672 1.85 1.352 2.78.874 1.2 1.92 2.247 3.117 3.046.899.6 1.988 1.174 2.864 1.174m0 0c-.876 0-1.966.575-2.864 1.174-1.198.8-2.243 1.847-3.117 3.045-.68.931-1.352 2.041-1.352 2.781m7.333-7H1" stroke="#fff" stroke-width="2"/></symbol><symbol fill="none" viewBox="0 0 41 42" id="wt" xmlns="http://www.w3.org/2000/svg"><path fill-rule="evenodd" clip-rule="evenodd" d="M3.4 30.665.544 41.086 11.21 38.29a20.105 20.105 0 0 0 9.613 2.448h.009c11.087 0 20.113-9.023 20.118-20.111a19.99 19.99 0 0 0-5.887-14.228A19.994 19.994 0 0 0 20.832.5C9.742.5.718 9.522.714 20.61a20.075 20.075 0 0 0 2.685 10.055Zm.71-10.053c.004-9.216 7.505-16.714 16.728-16.714A16.612 16.612 0 0 1 32.66 8.8a16.612 16.612 0 0 1 4.893 11.825c-.004 9.217-7.505 16.716-16.721 16.716h-.007a16.696 16.696 0 0 1-8.51-2.33l-.611-.362-6.329 1.66 1.69-6.169-.398-.632a16.673 16.673 0 0 1-2.556-8.896Z" fill="#34C759"/><path fill-rule="evenodd" clip-rule="evenodd" d="M15.804 12.203c-.377-.837-.773-.854-1.131-.868-.293-.013-.629-.012-.964-.012-.335 0-.88.126-1.34.629-.46.503-1.76 1.719-1.76 4.192s1.802 4.863 2.053 5.199c.251.335 3.477 5.572 8.587 7.587 4.246 1.674 5.11 1.341 6.032 1.258.922-.084 2.974-1.216 3.393-2.39.419-1.174.419-2.18.293-2.39-.126-.21-.46-.335-.964-.586-.503-.252-2.974-1.468-3.435-1.636-.46-.167-.795-.25-1.13.252-.336.503-1.298 1.635-1.592 1.97-.293.336-.586.378-1.09.127-.502-.252-2.12-.783-4.041-2.495-1.495-1.332-2.503-2.978-2.797-3.48-.293-.504-.031-.776.22-1.026.227-.226.503-.587.755-.881.25-.293.335-.503.502-.838.168-.336.084-.63-.042-.88-.125-.252-1.102-2.738-1.55-3.732Z" fill="#34C759"/></symbol></svg>